<?xml version="1.0" encoding="iso-8859-1"?><!-- Generator: Adobe Illustrator 22.1.0, SVG Export Plug-In . SVG Version: 6.00 Build 0)  --><svg xmlns="http://www.w3.org/2000/svg" xmlns:xlink="http://www.w3.org/1999/xlink" viewBox="0 0 100 100" width="50px" height="50px"><path style="fill:#FED5B3;" d="M71,82H29c-6.075,0-11-4.925-11-11V29c0-6.075,4.925-11,11-11h42c6.075,0,11,4.925,11,11v42C82,77.075,77.075,82,71,82z"/><path style="fill:#D68F53;" d="M18,39V29c0-6.075,4.925-11,11-11h42c6.075,0,11,4.925,11,11v10H18z"/><polygon style="fill:#F15B6C;" points="26,38 22,38 22,20 26,19 "/><polygon style="fill:#F9E65C;" points="25,38 29,38 29,18 25,19 "/><rect x="28" y="18" style="fill:#A1D3A2;" width="4" height="20"/><rect x="31" y="18" style="fill:#39C2D8;" width="4" height="20"/><rect x="66.5" y="24.5" style="fill:#B77748;" width="8" height="8"/><circle style="fill:#FEFDEF;" cx="50" cy="50" r="16"/><circle style="fill:#8F9EB6;" cx="50" cy="50" r="11"/><circle style="fill:#78CDD4;" cx="45.036" cy="45.036" r="3.964"/><path style="fill:#B77748;" d="M32.5,36.5h-8c-1.105,0-2,0.895-2,2c0,1.105,0.895,2,2,2h8c1.105,0,2-0.895,2-2C34.5,37.395,33.605,36.5,32.5,36.5z"/><g><path style="fill:#1F212B;" d="M49.964,65.928c-2.551,0-5.089-0.617-7.341-1.783C37.305,61.385,34,55.951,34,49.964C34,41.161,41.161,34,49.964,34s15.964,7.161,15.964,15.964S58.767,65.928,49.964,65.928z M49.964,35C41.713,35,35,41.713,35,49.964c0,5.612,3.098,10.706,8.084,13.292c2.14,1.109,4.454,1.672,6.88,1.672c8.251,0,14.964-6.713,14.964-14.964S58.215,35,49.964,35z"/></g><g><path style="fill:#1F212B;" d="M67.5,39h-7c-0.276,0-0.5-0.224-0.5-0.5s0.224-0.5,0.5-0.5h7c0.276,0,0.5,0.224,0.5,0.5S67.776,39,67.5,39z"/></g><g><path style="fill:#1F212B;" d="M39.5,39h-5c-0.276,0-0.5-0.224-0.5-0.5s0.224-0.5,0.5-0.5h5c0.276,0,0.5,0.224,0.5,0.5S39.776,39,39.5,39z"/></g><g><path style="fill:#1F212B;" d="M22.5,39h-4c-0.276,0-0.5-0.224-0.5-0.5s0.224-0.5,0.5-0.5h4c0.276,0,0.5,0.224,0.5,0.5S22.776,39,22.5,39z"/></g><g><path style="fill:#1F212B;" d="M81.5,39h-11c-0.276,0-0.5-0.224-0.5-0.5s0.224-0.5,0.5-0.5h11c0.276,0,0.5,0.224,0.5,0.5S81.776,39,81.5,39z"/></g><g><path style="fill:#1F212B;" d="M71,83H29c-6.617,0-12-5.383-12-12V29c0-6.617,5.383-12,12-12h42c6.617,0,12,5.383,12,12v42C83,77.617,77.617,83,71,83z M29,19c-5.514,0-10,4.486-10,10v42c0,5.514,4.486,10,10,10h42c5.514,0,10-4.486,10-10V29c0-5.514-4.486-10-10-10H29z"/></g><g><path style="fill:#1F212B;" d="M50,61c-6.065,0-11-4.935-11-11s4.935-11,11-11c4.647,0,8.814,2.941,10.368,7.319c0.093,0.26-0.043,0.546-0.304,0.639c-0.259,0.09-0.546-0.045-0.639-0.305C58.014,42.674,54.226,40,50,40c-5.514,0-10,4.486-10,10s4.486,10,10,10c0.276,0,0.5,0.224,0.5,0.5S50.276,61,50,61z"/></g><g><path style="fill:#1F212B;" d="M60.488,50.001c-0.266,0-0.487-0.209-0.499-0.477c-0.016-0.322-0.046-0.641-0.091-0.954c-0.039-0.273,0.151-0.526,0.425-0.565c0.268-0.034,0.525,0.15,0.565,0.425c0.049,0.345,0.083,0.694,0.099,1.048c0.014,0.276-0.2,0.51-0.476,0.522C60.504,50.001,60.496,50.001,60.488,50.001z"/></g><g><path style="fill:#1F212B;" d="M45.036,49c-0.642,0-1.255-0.149-1.822-0.442c-1.321-0.687-2.142-2.035-2.142-3.521c0-2.186,1.778-3.964,3.964-3.964S49,42.851,49,45.036S47.222,49,45.036,49z M45.036,42.072c-1.635,0-2.964,1.329-2.964,2.964c0,1.111,0.613,2.12,1.602,2.634c0.424,0.219,0.882,0.33,1.362,0.33C46.671,48,48,46.671,48,45.036S46.671,42.072,45.036,42.072z"/></g><g><path style="fill:#1F212B;" d="M74.5,33h-8c-0.276,0-0.5-0.224-0.5-0.5v-8c0-0.276,0.224-0.5,0.5-0.5h8c0.276,0,0.5,0.224,0.5,0.5v8C75,32.776,74.776,33,74.5,33z M67,32h7v-7h-7V32z"/></g><g><path style="fill:#1F212B;" d="M22.5,34c-0.276,0-0.5-0.224-0.5-0.5v-13c0-0.276,0.224-0.5,0.5-0.5s0.5,0.224,0.5,0.5v13C23,33.776,22.776,34,22.5,34z"/></g><g><path style="fill:#1F212B;" d="M31.5,37c-0.276,0-0.5-0.224-0.5-0.5v-15c0-0.276,0.224-0.5,0.5-0.5s0.5,0.224,0.5,0.5v15C32,36.776,31.776,37,31.5,37z"/></g><g><path style="fill:#1F212B;" d="M34.5,39c-0.276,0-0.5-0.224-0.5-0.5v-4c0-0.276,0.224-0.5,0.5-0.5s0.5,0.224,0.5,0.5v4C35,38.776,34.776,39,34.5,39z"/></g><g><path style="fill:#1F212B;" d="M34.5,32c-0.276,0-0.5-0.224-0.5-0.5v-2c0-0.276,0.224-0.5,0.5-0.5s0.5,0.224,0.5,0.5v2C35,31.776,34.776,32,34.5,32z"/></g><g><path style="fill:#1F212B;" d="M34.5,27c-0.276,0-0.5-0.224-0.5-0.5v-8c0-0.276,0.224-0.5,0.5-0.5s0.5,0.224,0.5,0.5v8C35,26.776,34.776,27,34.5,27z"/></g><g><path style="fill:#1F212B;" d="M28.5,26c-0.276,0-0.5-0.224-0.5-0.5v-7c0-0.276,0.224-0.5,0.5-0.5s0.5,0.224,0.5,0.5v7C29,25.776,28.776,26,28.5,26z"/></g><g><path style="fill:#1F212B;" d="M28.5,37c-0.276,0-0.5-0.224-0.5-0.5v-8c0-0.276,0.224-0.5,0.5-0.5s0.5,0.224,0.5,0.5v8C29,36.776,28.776,37,28.5,37z"/></g><g><path style="fill:#1F212B;" d="M25.5,37c-0.276,0-0.5-0.224-0.5-0.5v-2c0-0.276,0.224-0.5,0.5-0.5s0.5,0.224,0.5,0.5v2C26,36.776,25.776,37,25.5,37z"/></g><g><path style="fill:#1F212B;" d="M25.5,32c-0.276,0-0.5-0.224-0.5-0.5v-13c0-0.276,0.224-0.5,0.5-0.5s0.5,0.224,0.5,0.5v13C26,31.776,25.776,32,25.5,32z"/></g><g><path style="fill:#1F212B;" d="M32.5,41h-8c-1.379,0-2.5-1.121-2.5-2.5s1.121-2.5,2.5-2.5h8c1.379,0,2.5,1.121,2.5,2.5S33.879,41,32.5,41z M24.5,37c-0.827,0-1.5,0.673-1.5,1.5s0.673,1.5,1.5,1.5h8c0.827,0,1.5-0.673,1.5-1.5S33.327,37,32.5,37H24.5z"/></g></svg>